HIERARCHY
ROOT Model
{
	OFFSET 0 0 0
	CHANNELS 6 Xposition Yposition Zposition Zrotation Xrotation Yrotation
	JOINT Model1
	{
		OFFSET 0 -2.25479 2.99383
		CHANNELS 3 Zrotation Xrotation Yrotation
		JOINT Model2
		{
			OFFSET 12.111 0 0
			CHANNELS 3 Zrotation Xrotation Yrotation
			JOINT Model3
			{
				OFFSET 11.5502 0 0
				CHANNELS 3 Zrotation Xrotation Yrotation
				JOINT Model4
				{
					OFFSET 11.781 0 0
					CHANNELS 3 Zrotation Xrotation Yrotation
					JOINT Model5
					{
						OFFSET 20.0601 0 0
						CHANNELS 3 Zrotation Xrotation Yrotation
						JOINT Model6
						{
							OFFSET 11.1962 0 0
							CHANNELS 3 Zrotation Xrotation Yrotation
							End Site
							{
								OFFSET 0 0 0
							}
						}
					}
					JOINT Model7
					{
						OFFSET 10.8223 0.417538 3.51114
						CHANNELS 3 Zrotation Xrotation Yrotation
						JOINT Model8
						{
							OFFSET -6.07943 0 0
							CHANNELS 3 Zrotation Xrotation Yrotation
							JOINT Model9
							{
								OFFSET -0.277412 10.39 -0.0512428
								CHANNELS 3 Zrotation Xrotation Yrotation
								JOINT Model10
								{
									OFFSET -3.4391 -0.282043 1.86678
									CHANNELS 3 Zrotation Xrotation Yrotation
									JOINT Model11
									{
										OFFSET 13.0269 0 0
										CHANNELS 3 Zrotation Xrotation Yrotation
										JOINT Model12
										{
											OFFSET 10.8866 0 0
											CHANNELS 3 Zrotation Xrotation Yrotation
											JOINT Model13
											{
												OFFSET 16.7317 0 0
												CHANNELS 3 Zrotation Xrotation Yrotation
												JOINT Model14
												{
													OFFSET 11.8292 0 0
													CHANNELS 3 Zrotation Xrotation Yrotation
													JOINT Model15
													{
														OFFSET 4.82751 -3.73566 -0.836517
														CHANNELS 3 Zrotation Xrotation Yrotation
														JOINT Model16
														{
															OFFSET 3.75311 -0.0582924 -0.0186462
															CHANNELS 3 Zrotation Xrotation Yrotation
															JOINT Model17
															{
																OFFSET 2.88689 0.0192337 0.014801
																CHANNELS 3 Zrotation Xrotation Yrotation
																End Site
																{
																	OFFSET 0 0 0
																}
															}
														}
													}
													JOINT Model18
													{
														OFFSET 9.72198 -3.06458 0.238766
														CHANNELS 3 Zrotation Xrotation Yrotation
														JOINT Model19
														{
															OFFSET 4.61131 0 0
															CHANNELS 3 Zrotation Xrotation Yrotation
															JOINT Model20
															{
																OFFSET 2.8969 -1.14441e-005 0
																CHANNELS 3 Zrotation Xrotation Yrotation
																End Site
																{
																	OFFSET 0 0 0
																}
															}
														}
													}
													JOINT Model21
													{
														OFFSET 9.5443 -0.745064 0.588936
														CHANNELS 3 Zrotation Xrotation Yrotation
														JOINT Model22
														{
															OFFSET 5.33978 0 0
															CHANNELS 3 Zrotation Xrotation Yrotation
															JOINT Model23
															{
																OFFSET 3.03619 1.14441e-005 0
																CHANNELS 3 Zrotation Xrotation Yrotation
																End Site
																{
																	OFFSET 0 0 0
																}
															}
														}
													}
													JOINT Model24
													{
														OFFSET 9.47759 1.51286 0.485119
														CHANNELS 3 Zrotation Xrotation Yrotation
														JOINT Model25
														{
															OFFSET 4.96136 1.14441e-005 0
															CHANNELS 3 Zrotation Xrotation Yrotation
															JOINT Model26
															{
																OFFSET 2.51965 0 0
																CHANNELS 3 Zrotation Xrotation Yrotation
																End Site
																{
																	OFFSET 0 0 0
																}
															}
														}
													}
													JOINT Model27
													{
														OFFSET 9.34248 3.34117 -0.239281
														CHANNELS 3 Zrotation Xrotation Yrotation
														JOINT Model28
														{
															OFFSET 3.28259 2.67029e-005 0
															CHANNELS 3 Zrotation Xrotation Yrotation
															JOINT Model29
															{
																OFFSET 2.1292 0 0
																CHANNELS 3 Zrotation Xrotation Yrotation
																End Site
																{
																	OFFSET 0 0 0
																}
															}
														}
													}
												}
											}
										}
									}
								}
							}
						}
					}
					JOINT Model30
					{
						OFFSET 10.8223 0.417904 -3.51107
						CHANNELS 3 Zrotation Xrotation Yrotation
						JOINT Model31
						{
							OFFSET 6.07943 0 0
							CHANNELS 3 Zrotation Xrotation Yrotation
							JOINT Model32
							{
								OFFSET 0.277412 -10.39 0.0512428
								CHANNELS 3 Zrotation Xrotation Yrotation
								JOINT Model33
								{
									OFFSET 3.4391 0.282043 -1.86678
									CHANNELS 3 Zrotation Xrotation Yrotation
									JOINT Model34
									{
										OFFSET -13.0269 0 0
										CHANNELS 3 Zrotation Xrotation Yrotation
										JOINT Model35
										{
											OFFSET -10.8866 0 0
											CHANNELS 3 Zrotation Xrotation Yrotation
											JOINT Model36
											{
												OFFSET -16.7317 0 0
												CHANNELS 3 Zrotation Xrotation Yrotation
												JOINT Model37
												{
													OFFSET -11.8292 0 0
													CHANNELS 3 Zrotation Xrotation Yrotation
													JOINT Model38
													{
														OFFSET -4.82751 3.73566 0.836517
														CHANNELS 3 Zrotation Xrotation Yrotation
														JOINT Model39
														{
															OFFSET -3.75311 0.0582848 0.0186424
															CHANNELS 3 Zrotation Xrotation Yrotation
															JOINT Model40
															{
																OFFSET -2.88688 -0.0192375 -0.014801
																CHANNELS 3 Zrotation Xrotation Yrotation
																End Site
																{
																	OFFSET 0 0 0
																}
															}
														}
													}
													JOINT Model41
													{
														OFFSET -9.72197 3.06459 -0.23877
														CHANNELS 3 Zrotation Xrotation Yrotation
														JOINT Model42
														{
															OFFSET -4.6113 0 0
															CHANNELS 3 Zrotation Xrotation Yrotation
															JOINT Model43
															{
																OFFSET -2.8969 0 0
																CHANNELS 3 Zrotation Xrotation Yrotation
																End Site
																{
																	OFFSET 0 0 0
																}
															}
														}
													}
													JOINT Model44
													{
														OFFSET -9.5443 0.745064 -0.58894
														CHANNELS 3 Zrotation Xrotation Yrotation
														JOINT Model45
														{
															OFFSET -5.33978 0 0
															CHANNELS 3 Zrotation Xrotation Yrotation
															JOINT Model46
															{
																OFFSET -3.03619 -1.52588e-005 0
																CHANNELS 3 Zrotation Xrotation Yrotation
																End Site
																{
																	OFFSET 0 0 0
																}
															}
														}
													}
													JOINT Model47
													{
														OFFSET -9.47759 -1.51286 -0.485123
														CHANNELS 3 Zrotation Xrotation Yrotation
														JOINT Model48
														{
															OFFSET -4.96136 -1.52588e-005 0
															CHANNELS 3 Zrotation Xrotation Yrotation
															JOINT Model49
															{
																OFFSET -2.51966 0 0
																CHANNELS 3 Zrotation Xrotation Yrotation
																End Site
																{
																	OFFSET 0 0 0
																}
															}
														}
													}
													JOINT Model50
													{
														OFFSET -9.34246 -3.34118 0.239277
														CHANNELS 3 Zrotation Xrotation Yrotation
														JOINT Model51
														{
															OFFSET -3.2826 -1.90735e-005 0
															CHANNELS 3 Zrotation Xrotation Yrotation
															JOINT Model52
															{
																OFFSET -2.1292 0 0
																CHANNELS 3 Zrotation Xrotation Yrotation
																End Site
																{
																	OFFSET 0 0 0
																}
															}
														}
													}
												}
											}
										}
									}
								}
							}
						}
					}
				}
			}
		}
	}
	JOINT Model53
	{
		OFFSET 4.38026 -2.14632 -1.11516
		CHANNELS 3 Zrotation Xrotation Yrotation
		JOINT Model54
		{
			OFFSET 0 0 4.94999
			CHANNELS 3 Zrotation Xrotation Yrotation
			JOINT Model55
			{
				OFFSET 18.5642 0 0
				CHANNELS 3 Zrotation Xrotation Yrotation
				JOINT Model56
				{
					OFFSET 21.2884 0 1.14441e-005
					CHANNELS 3 Zrotation Xrotation Yrotation
					JOINT Model57
					{
						OFFSET 30.261 0 0
						CHANNELS 3 Zrotation Xrotation Yrotation
						JOINT Model58
						{
							OFFSET 11.7259 0 0
							CHANNELS 3 Zrotation Xrotation Yrotation
							JOINT Model59
							{
								OFFSET 10.682 0 0
								CHANNELS 3 Zrotation Xrotation Yrotation
								End Site
								{
									OFFSET 0 0 0
								}
							}
						}
					}
				}
			}
		}
	}
	JOINT Model60
	{
		OFFSET -4.38026 -2.14632 -1.11516
		CHANNELS 3 Zrotation Xrotation Yrotation
		JOINT Model61
		{
			OFFSET 0 0 -4.94999
			CHANNELS 3 Zrotation Xrotation Yrotation
			JOINT Model62
			{
				OFFSET -18.5642 0 0
				CHANNELS 3 Zrotation Xrotation Yrotation
				JOINT Model63
				{
					OFFSET -21.2884 0 -1.14441e-005
					CHANNELS 3 Zrotation Xrotation Yrotation
					JOINT Model64
					{
						OFFSET -30.261 0 0
						CHANNELS 3 Zrotation Xrotation Yrotation
						JOINT Model65
						{
							OFFSET -11.7259 0 0
							CHANNELS 3 Zrotation Xrotation Yrotation
							JOINT Model66
							{
								OFFSET -10.682 0 0
								CHANNELS 3 Zrotation Xrotation Yrotation
								End Site
								{
									OFFSET 0 0 0
								}
							}
						}
					}
				}
			}
		}
	}
}
MOTION
Frames: 5
Frame Time: 0.033333
49.0924 130.628 81.6642 -85.9193 -7.19628 -86.403 -180 -6.53164e-013 -90 1.55722 -0.0924498 0.836617 3.11563 -0.162558 1.67544 3.11563 -0.162122 1.67542 34.9466 11.4432 9.4743 -20.7802 19.3521 -32.8072 120.092 75.5343 58.4939 -7.08765 1.10143 1.97124 -167.277 84.4999 48.8109 175.038 -34.6267 -73.9341 2.0485e-006 3.91816 2.2628e-005 -121.683 -5.32498 0.520273 -6.18802e-007 -7.76508 -1.01813e-006 -4.03137 -3.00489 73.3898 -72.0648 39.0385 39.3397 33.3638 2.10362 14.835 0.588947 0.308273 6.35287 -99.6409 81.413 100.35 -0.0181409 2.77761e-005 -0.117315 -0.124139 0.00241112 -0.799296 -79.8382 79.5773 80.5374 -0.000225776 -0.000220925 2.21955e-005 -0.000956226 0.000122891 -2.73191e-005 -66.7416 80.4058 67.2171 -0.000437132 1.59429e-005 -2.73193e-005 -0.000136604 -0.000109295 -5.46394e-005 -6.42159 81.2158 8.01779 -0.000218566 1.68992e-005 0.000212143 0.000901585 -0.000184814 -0.000218562 -59.9282 75.5373 58.5147 -17.0402 47.0531 25.1208 -167.277 84.4999 48.8109 179.013 -2.77572 -11.7803 -7.9671e-006 24.5729 3.46426e-005 -149.693 13.4942 0.316759 -2.67348e-006 21.2125 9.62177e-007 -0.0525891 0.00247544 -5.38853 -72.0648 39.0385 39.3397 33.3638 2.10361 14.835 0.588946 0.308273 6.35287 -99.6409 81.413 100.35 -0.0181409 3.00693e-005 -0.117315 -0.124139 0.00241112 -0.799296 -79.8382 79.5773 80.5374 -0.000260651 -0.000218575 2.35717e-005 -0.000956232 0.000122984 -2.73191e-005 -66.7416 80.4058 67.2171 -0.000437137 1.48723e-005 -2.73191e-005 -0.00013661 -0.000109295 -5.46393e-005 -6.42159 81.2158 8.01779 -0.00021857 1.957e-005 0.0002123 0.000901577 -0.000191257 -0.000218562 0.00081454 0.56661 89.91 -37.406 -16.9193 -46.7803 -3.84927e-006 -10.359 -3.67712e-007 46.8242 16.2772 -0.00634848 3.21764e-007 24.329 4.13864e-007 -64.8062 7.71428 -5.26867 -35.4947 3.99365e-007 -1.64204e-007 -180 -0.566576 -90.09 -36.1083 16.7399 -6.32393 2.87347e-006 27.1781 -1.6919e-007 50.8135 11.5411 -0.00642246 8.17992e-007 17.2186 1.44899e-006 -39.2734 -14.5935 13.6465 -54.1342 6.74667 0.345809 
49.3657 130.183 82.8602 -85.5744 -7.54828 -85.5923 -180 -6.53164e-013 -90 1.4361 -0.0340676 1.18681 2.87261 -0.0388121 2.37411 2.87261 -0.0383756 2.37409 34.869 10.6505 11.0278 -19.7215 18.6393 -34.8749 120.092 75.5343 58.4939 -5.38589 5.07323 3.07281 -167.277 84.4999 48.8109 171.28 -28.5977 -67.212 1.59799e-006 5.05454 2.26632e-005 -119.153 -4.03282 0.533036 -5.853e-007 -5.88938 -1.01415e-006 -3.47161 -2.73702 76.4978 -72.0648 39.0385 39.3397 33.3638 2.10362 14.835 0.588947 0.308273 6.35287 -99.6409 81.413 100.35 -0.0181409 2.77761e-005 -0.117315 -0.124139 0.00241112 -0.799296 -79.8382 79.5773 80.5374 -0.000225776 -0.000220925 2.21955e-005 -0.000956226 0.000122891 -2.73191e-005 -66.7416 80.4058 67.2171 -0.000437132 1.59429e-005 -2.73193e-005 -0.000136604 -0.000109295 -5.46394e-005 -6.42159 81.2158 8.01779 -0.000218566 1.68992e-005 0.000212143 0.000901585 -0.000184814 -0.000218562 -59.9282 75.5373 58.5147 -13.7794 44.2581 21.832 -167.277 84.4999 48.8109 176.199 -1.86741 -9.96545 -7.87918e-006 24.4406 3.46061e-005 -149.332 13.1746 0.319726 -2.66469e-006 20.7232 9.59033e-007 -0.0525891 0.00247544 -5.38853 -72.0648 39.0385 39.3397 33.3638 2.10361 14.835 0.588946 0.308273 6.35287 -99.6409 81.413 100.35 -0.0181409 3.00693e-005 -0.117315 -0.124139 0.00241112 -0.799296 -79.8382 79.5773 80.5374 -0.000260651 -0.000218575 2.35717e-005 -0.000956232 0.000122984 -2.73191e-005 -66.7416 80.4058 67.2171 -0.000437137 1.48723e-005 -2.73191e-005 -0.00013661 -0.000109295 -5.46393e-005 -6.42159 81.2158 8.01779 -0.00021857 1.957e-005 0.0002123 0.000901577 -0.000191257 -0.000218562 0.00081454 0.56661 89.91 -37.4961 -14.0648 -44.1307 -3.82726e-006 -6.9534 -3.64399e-007 44.7273 15.1656 -0.00609136 3.34788e-007 22.6649 4.08671e-007 -64.8552 6.57207 -4.60398 -35.4947 4.03157e-007 -8.44732e-008 -180 -0.566576 -90.09 -32.949 16.2472 -7.16741 2.87288e-006 27.0025 -1.68924e-007 48.3636 8.00142 -0.00613106 9.54933e-007 11.9127 1.41452e-006 -38.2983 -13.3571 12.7733 -60.1733 -0.155573 -1.87892 
49.4616 129.706 84.5416 -85.2406 -6.45307 -85.6417 -180 -6.53164e-013 -90 1.51463 0.136218 1.73077 3.0245 0.317632 3.45736 3.0245 0.318068 3.45734 33.3342 10.0293 3.94303 -18.1843 17.3872 -31.8623 120.092 75.5343 58.4939 -5.7653 1.81236 1.97962 -167.277 84.4999 48.8109 179.371 -31.8046 -49.4456 4.00255e-006 -1.035 2.25788e-005 -128.2 -3.48802 0.47934 -5.66722e-007 -4.84348 -1.01241e-006 -2.69594 -2.12626 76.5209 -72.0648 39.0385 39.3397 33.3638 2.10362 14.835 0.588947 0.308273 6.35287 -99.6409 81.413 100.35 -0.0181409 2.77761e-005 -0.117315 -0.124139 0.00241112 -0.799296 -79.8382 79.5773 80.5374 -0.000225776 -0.000220925 2.21955e-005 -0.000956226 0.000122891 -2.73191e-005 -66.7416 80.4058 67.2171 -0.000437132 1.59429e-005 -2.73193e-005 -0.000136604 -0.000109295 -5.46394e-005 -6.42159 81.2158 8.01779 -0.000218566 1.68992e-005 0.000212143 0.000901585 -0.000184814 -0.000218562 -59.9282 75.5373 58.5147 -9.28107 46.7735 20.1398 -167.277 84.4999 48.8109 170.877 -0.697374 -7.60208 -7.66657e-006 24.1193 3.45187e-005 -146.872 12.1207 0.34109 -2.63549e-006 19.0742 9.49094e-007 -0.0525891 0.00247544 -5.38853 -72.0648 39.0385 39.3397 33.3638 2.10361 14.835 0.588946 0.308273 6.35287 -99.6409 81.413 100.35 -0.0181409 3.00693e-005 -0.117315 -0.124139 0.00241112 -0.799296 -79.8382 79.5773 80.5374 -0.000260651 -0.000218575 2.35717e-005 -0.000956232 0.000122984 -2.73191e-005 -66.7416 80.4058 67.2171 -0.000437137 1.48723e-005 -2.73191e-005 -0.00013661 -0.000109295 -5.46393e-005 -6.42159 81.2158 8.01779 -0.00021857 1.957e-005 0.0002123 0.000901577 -0.000191257 -0.000218562 0.00081454 0.56661 89.91 -36.5089 -12.0878 -41.094 -3.81104e-006 -4.40932 -3.62792e-007 44.4354 13.2853 -0.00601184 3.56163e-007 19.845 4.0092e-007 -65.2934 7.30015 -5.00425 -35.4947 3.84745e-007 -2.16379e-008 -180 -0.566576 -90.09 -29.9552 15.6468 -9.55458 2.87398e-006 27.3332 -1.69426e-007 44.5255 6.33651 -0.00572929 1.01726e-006 9.42156 1.40298e-006 -41.5135 -10.7389 9.63625 -61.1881 -6.09747 -4.24728 
48.8426 129.514 86.3635 -86.4483 -5.88499 -87.6617 -180 -6.53164e-013 -90 2.09276 0.350026 1.86918 4.17316 0.767445 3.72447 4.17316 0.767881 3.72443 31.0708 10.0335 -5.93557 -16.8283 16.2798 -26.2645 120.092 75.5343 58.4939 -10.4441 -6.08168 -0.360146 -167.277 84.4999 48.8109 -168.173 -36.0221 -34.6649 6.58548e-006 -7.54665 2.27723e-005 -137.785 -4.50385 0.410261 -5.89237e-007 -6.11054 -1.01456e-006 -3.25696 -2.63038 77.8445 -72.0648 39.0385 39.3397 33.3638 2.10362 14.835 0.588947 0.308273 6.35287 -99.6409 81.413 100.35 -0.0181409 2.77761e-005 -0.117315 -0.124139 0.00241112 -0.799296 -79.8382 79.5773 80.5374 -0.000225776 -0.000220925 2.21955e-005 -0.000956226 0.000122891 -2.73191e-005 -66.7416 80.4058 67.2171 -0.000437132 1.59429e-005 -2.73193e-005 -0.000136604 -0.000109295 -5.46394e-005 -6.42159 81.2158 8.01779 -0.000218566 1.68992e-005 0.000212143 0.000901585 -0.000184814 -0.000218562 -59.9282 75.5373 58.5147 -6.86106 52.0265 20.6552 -167.277 84.4999 48.8109 165.224 -0.313136 -6.45582 -7.07004e-006 23.2092 3.42792e-005 -143.38 10.6698 0.370277 -2.59618e-006 16.8014 9.36982e-007 -0.0525891 0.00247544 -5.38853 -72.0648 39.0385 39.3397 33.3638 2.10361 14.835 0.588946 0.308273 6.35287 -99.6409 81.413 100.35 -0.0181409 3.00693e-005 -0.117315 -0.124139 0.00241112 -0.799296 -79.8382 79.5773 80.5374 -0.000260651 -0.000218575 2.35717e-005 -0.000956232 0.000122984 -2.73191e-005 -66.7416 80.4058 67.2171 -0.000437137 1.48723e-005 -2.73191e-005 -0.00013661 -0.000109295 -5.46393e-005 -6.42159 81.2158 8.01779 -0.00021857 1.957e-005 0.0002123 0.000901577 -0.000191257 -0.000218562 0.00081454 0.56661 89.91 -32.7495 -11.2926 -36.5393 -3.80127e-006 -2.86837 -3.62172e-007 45.1174 11.6657 -0.00604327 3.73981e-007 17.4146 3.95227e-007 -66.1717 9.22083 -6.04684 -35.4947 3.16324e-007 8.31452e-008 -180 -0.566576 -90.09 -25.2333 12.6745 -14.5762 2.8692e-006 25.8775 -1.67283e-007 39.6672 5.82071 -1.29029 1.03615e-006 8.65871 1.40001e-006 -47.8833 -5.7006 4.36429 -57.7283 -13.5175 -5.8531 
47.7723 128.982 86.6482 -86.4508 -7.29817 -87.729 -180 -6.53164e-013 -90 2.10576 0.457963 2.24359 4.19226 0.997254 4.46908 4.19226 0.99769 4.46905 29.9833 10.3232 -17.4875 -15.6587 15.0046 -17.8751 120.092 75.5343 58.4939 -14.0684 -14.4342 -3.80067 -167.277 84.4999 48.8109 -157.113 -37.6711 -24.5801 8.07205e-006 -11.2179 2.30148e-005 -140.197 -4.78215 0.391002 -5.955e-007 -6.46195 -1.01525e-006 -3.17366 -2.60061 78.6599 -72.0648 39.0385 39.3397 33.3638 2.10362 14.835 0.588947 0.308273 6.35287 -99.6409 81.413 100.35 -0.0181409 2.77761e-005 -0.117315 -0.124139 0.00241112 -0.799296 -79.8382 79.5773 80.5374 -0.000225776 -0.000220925 2.21955e-005 -0.000956226 0.000122891 -2.73191e-005 -66.7416 80.4058 67.2171 -0.000437132 1.59429e-005 -2.73193e-005 -0.000136604 -0.000109295 -5.46394e-005 -6.42159 81.2158 8.01779 -0.000218566 1.68992e-005 0.000212143 0.000901585 -0.000184814 -0.000218562 -59.9282 75.5373 58.5147 -6.36739 59.3714 23.1541 -167.277 84.4999 48.8109 163.004 -0.251006 -3.55002 -6.47989e-006 22.2965 3.4051e-005 -141.037 9.52087 0.388866 -2.56591e-006 15.0135 9.28685e-007 -0.0525891 0.00247544 -5.38853 -72.0648 39.0385 39.3397 33.3638 2.10361 14.835 0.588946 0.308273 6.35287 -99.6409 81.413 100.35 -0.0181409 3.00693e-005 -0.117315 -0.124139 0.00241112 -0.799296 -79.8382 79.5773 80.5374 -0.000260651 -0.000218575 2.35717e-005 -0.000956232 0.000122984 -2.73191e-005 -66.7416 80.4058 67.2171 -0.000437137 1.48723e-005 -2.73191e-005 -0.00013661 -0.000109295 -5.46393e-005 -6.42159 81.2158 8.01779 -0.00021857 1.957e-005 0.0002123 0.000901577 -0.000191257 -0.000218562 0.00081454 0.56661 89.91 -33.2482 -10.3389 -36.0379 -3.79501e-006 -1.87881 -3.61913e-007 46.5835 11.8235 -0.00614252 3.72285e-007 17.6489 3.95737e-007 -66.3476 10.218 -6.59722 -36.3839 -2.51336 0.0960984 -180 -0.566576 -90.09 -22.8242 9.77612 -16.5632 2.86042e-006 23.112 -1.63644e-007 37.3924 4.33844 -0.705492 1.09075e-006 6.43766 1.39284e-006 -54.0316 0.587088 -0.818596 -54.5042 -20.6329 -6.50419 
